#!OML:ASF F:\VICON\USERDATA\INSTALL\rory3\rory3.ASF
:FULLY-SPECIFIED
:DEGREES
99
root 0.5877222758286937 17.74971953650412 44.26705835336063 -1.9865323483178987 -0.7130929996560034 2.675563595245006
lfemur 6.551859212065558 -2.966715605477355 -27.909601865115206
ltibia 15.561812726888814
lfoot -15.418124473775858 1.6387475005907566
ltoes -1.4866966342140353
rfemur -28.923545078705807 3.6360972417804494 17.123443369722448
rtibia 27.843480035318585
rfoot -10.205535050654401 -15.449936044280165
rtoes -0.9294727007495953
lowerback 9.548122835924659 -0.6454698992809041 -4.103393088957589
upperback 0.6482864068844059 -1.2708848124553946 0.8331611112073587
thorax -4.63460632825444 -0.5412870782329908 3.112614305517115
lowerneck -16.62314125255439 -2.782586136767657 -3.4960365676141603
upperneck 20.21417267830655 -3.5326315896342075 2.1706434887348913
head 9.147674400930873 -1.6700554281942328 0.8259077239454691
lclavicle -2.4815309207202455e-15 4.2093693068916925e-16
lhumerus -21.563765989141253 -4.907698977332003 82.33307911602192
lradius 27.452775381837228
lwrist 7.8665138461676625
lhand -27.925632320817343 22.23980353956877
lfingers 7.12502
lthumb -1.3141152542994339 52.211416476267374
rclavicle -2.4815309207202455e-15 4.2093693068916925e-16
rhumerus -29.991211410915422 -16.937930082489963 -80.57655910039843
rradius 25.760832038675765
rwrist 5.454611670341278
rhand -16.69924997220931 23.42346010371231
rfingers 7.12502
rthumb 9.525488987428933 -6.338009005976844
100
root 0.533988345673626 17.706315556756035 45.8212916215006 -1.5784410451943218 -0.07282978686326835 3.0417488673601825
lfemur 10.008155921566203 -2.9832863284498488 -27.636310276040035
ltibia 14.54803934120272
lfoot -15.012087322194404 1.2341418854832915
ltoes -3.6217493902214
rfemur -27.895601390137315 5.151740586610538 16.622239718139184
rtibia 22.272398722853517
rfoot -9.896187568443043 -15.96681408294469
rtoes -1.7979982596027502
lowerback 9.402615014754572 -0.7990209348124903 -4.367424153193965
upperback 0.5802860560395728 -1.4967137815843894 0.9584285472286581
thorax -4.565769295484523 -0.6476772644850495 3.5593108064070313
lowerneck -16.678347279392245 -2.767846728489129 -3.460567821107348
upperneck 20.268970424701397 -3.511876785318523 2.2377873548548344
head 9.183469334331336 -1.660227014576747 0.8459935170356494
lclavicle -1.7632210468301357e-15 1.0823366670299722e-15
lhumerus -20.096859462365515 -5.336646885237534 82.25579222301779
lradius 28.75356120219189
lwrist 8.334494254968474
lhand -28.129100257069595 22.210846502467884
lfingers 7.12502
lthumb -1.5106295410041568 52.177020928027325
rclavicle -1.7632210468301357e-15 1.0823366670299722e-15
rhumerus -30.34289367905859 -17.64890176795061 -79.93934082514639
rradius 25.069271389489458
rwrist 6.398347492085599
rhand -16.77634121844627 24.068250866427274
rfingers 7.12502
rthumb 9.451114367456173 -5.699839872929573
101
root 0.44558693906642866 17.640038143114523 45.2109210784928 -1.482513067673654 0.0672073937816613 2.8202676056666554
lfemur 11.626501914364152 -3.591055557651615 -27.793340213176215
ltibia 13.56353281967364
lfoot -15.149502697235466 0.2573379979936159
ltoes -7.25086676710051
rfemur -28.41695284566781 5.476776762445747 16.430543358886357
rtibia 19.53749553188801
rfoot -9.830894688312606 -14.993217921586492
rtoes -2.9255888954221647
lowerback 9.295861575911351 -1.0253083698783079 -4.735938165025594
upperback 0.5134940327285937 -1.8240658322422187 1.0566113178421022
thorax -4.5710205794356025 -0.8009260834228147 3.694958317033215
lowerneck -16.833512393010047 -2.7623348691247442 -3.4503553424722537
upperneck 20.313014424614455 -3.5011056232420703 2.125829249576178
head 9.215391746992763 -1.6576521688406411 0.8061478897821758
lclavicle -2.568746978788739e-15 3.4032461831167706e-16
lhumerus -19.626757383401763 -5.822058519983902 82.16704537784015
lradius 29.487294327201923
lwrist 8.35665344382251
lhand -28.774121157220268 21.47847537759804
lfingers 7.12502
lthumb -2.133558701660683 51.43834495506139
rclavicle -2.568746978788739e-15 3.4032461831167706e-16
rhumerus -31.0269113180194 -19.12167183638809 -79.38387178140255
rradius 24.03449610802409
rwrist 7.196296620522229
rhand -17.029800730574223 24.214840727665095
rfingers 7.12502
rthumb 9.206548337267716 -5.5626559503049045
102
root 0.39119920435976674 17.60013165145266 46.52691040782764 -1.4771232212456453 0.2791967732648848 2.6256056143455324
lfemur 13.753016624861257 -4.229022233693946 -27.089911709831078
ltibia 16.01389827945121
lfoot -13.804264168695052 -0.4040544217499157
ltoes -10.845595580475845
rfemur -27.87601849476893 5.251638736708956 17.711493233916244
rtibia 21.84124282889683
rfoot -8.168185446083388 -12.085060527183279
rtoes -2.485310507478522
lowerback 9.31329868775973 -1.0650135473716151 -4.371360211629799
upperback 0.5011605312227094 -1.832645576346331 1.3214415016983114
thorax -4.563319281908187 -0.8094968568922067 3.917208104578935
lowerneck -16.891760574681108 -2.7105500187512757 -3.367850795828673
upperneck 20.48924084726666 -3.410888323699052 1.9674057817749584
head 9.284500460327486 -1.6279895182820865 0.7663660416906369
lclavicle -1.8453236519993596e-15 1.006361033930884e-15
lhumerus -19.095552877687393 -5.399043646656524 82.34227515453871
lradius 30.331564301934886
lwrist 8.512319118049694
lhand -29.391535197413234 20.87395543501965
lfingers 7.12502
lthumb -2.729817275584381 50.826988916365075
rclavicle -1.8453236519993592e-15 1.006361033930884e-15
rhumerus -31.457299926614876 -20.402952921671694 -78.33001377224548
rradius 23.1875171480444
rwrist 8.713825545040851
rhand -17.161498473420924 24.326467899170364
rfingers 7.12502
rthumb 9.079480425709518 -5.46000423375125
